<svg width="10" height="12" viewBox="0 0 10 12" fill="none" xmlns="http://www.w3.org/2000/svg">
<g id="elements">
<path id="Vector 5703 (Stroke)" fill-rule="evenodd" clip-rule="evenodd" d="M0.250122 10.875C0.250122 10.5989 0.47398 10.375 0.750122 10.375L9.25012 10.375C9.52626 10.375 9.75012 10.5989 9.75012 10.875C9.75012 11.1511 9.52626 11.375 9.25012 11.375L0.750122 11.375C0.47398 11.375 0.250122 11.1511 0.250122 10.875Z" fill="#26A195"/>
<path id="Subtract" fill-rule="evenodd" clip-rule="evenodd" d="M2.4091 0.713547C2.71424 0.646513 3.07834 0.625 3.50012 0.625L6.50012 0.625C6.9219 0.625 7.28601 0.646513 7.59115 0.713547C7.90053 0.781513 8.17274 0.901287 8.38579 1.11433C8.59883 1.32738 8.71861 1.59959 8.78658 1.90898C8.85361 2.21412 8.87512 2.57822 8.87512 3L8.87512 11L1.12512 11L1.12512 3C1.12512 2.57822 1.14663 2.21412 1.21367 1.90898C1.28164 1.59959 1.40141 1.32738 1.61446 1.11433C1.8275 0.901287 2.09971 0.781513 2.4091 0.713547ZM3.87512 3C3.87512 2.79289 4.04302 2.625 4.25012 2.625H5.75012C5.95723 2.625 6.12512 2.79289 6.12512 3C6.12512 3.20711 5.95723 3.375 5.75012 3.375L4.25012 3.375C4.04302 3.375 3.87512 3.20711 3.87512 3ZM3.87512 4.75C3.87512 4.54289 4.04302 4.375 4.25012 4.375L5.75012 4.375C5.95723 4.375 6.12512 4.54289 6.12512 4.75C6.12512 4.95711 5.95723 5.125 5.75012 5.125L4.25012 5.125C4.04302 5.125 3.87512 4.95711 3.87512 4.75ZM3.87512 6.5C3.87512 6.29289 4.04302 6.125 4.25012 6.125L5.75012 6.125C5.95723 6.125 6.12512 6.29289 6.12512 6.5C6.12512 6.70711 5.95723 6.875 5.75012 6.875L4.25012 6.875C4.04302 6.875 3.87512 6.70711 3.87512 6.5ZM4.58346 8C4.24554 8 3.86471 8.03122 3.62016 8.32468C3.50238 8.46602 3.44513 8.63491 3.41451 8.80219C3.38405 8.96858 3.37512 9.16153 3.37512 9.375L3.37512 10.875L4.12512 10.875V9.375C4.12512 9.17481 4.13418 9.03592 4.15225 8.93725C4.17015 8.83946 4.19196 8.81006 4.19633 8.80482C4.1981 8.80269 4.20032 8.80036 4.20636 8.79683C4.21345 8.79267 4.22877 8.78522 4.25798 8.77752C4.32125 8.76084 4.42108 8.75 4.58346 8.75H5.41679C5.57916 8.75 5.67899 8.76084 5.74227 8.77752C5.77147 8.78522 5.7868 8.79267 5.79389 8.79683C5.79992 8.80036 5.80214 8.80269 5.80391 8.80482C5.80828 8.81006 5.8301 8.83946 5.848 8.93725C5.86606 9.03592 5.87512 9.17481 5.87512 9.375L5.87512 10.875H6.62512L6.62512 9.375C6.62512 9.16153 6.6162 8.96858 6.58574 8.80219C6.55511 8.63491 6.49786 8.46602 6.38008 8.32468C6.13553 8.03122 5.7547 8 5.41679 8H4.58346Z" fill="#26A195"/>
</g>
</svg>
