<svg width="16" height="16" viewBox="0 0 16 16" fill="none" xmlns="http://www.w3.org/2000/svg">
<g id="elements">
<path id="Rectangle 1703" d="M6 10C6 8.11438 6 7.17157 6.58579 6.58579C7.17157 6 8.11438 6 10 6L10.6667 6C12.5523 6 13.4951 6 14.0809 6.58579C14.6667 7.17157 14.6667 8.11438 14.6667 10V10.6667C14.6667 12.5523 14.6667 13.4951 14.0809 14.0809C13.4951 14.6667 12.5523 14.6667 10.6667 14.6667H10C8.11438 14.6667 7.17157 14.6667 6.58579 14.0809C6 13.4951 6 12.5523 6 10.6667L6 10Z" stroke="#596774" stroke-width="1.5" stroke-linecap="round" stroke-linejoin="round"/>
<path id="Rectangle 1704" opacity="0.4" d="M11.3332 5.99998C11.3317 4.02859 11.3018 3.00745 10.728 2.30826C10.6172 2.17324 10.4934 2.04943 10.3584 1.93862C9.62081 1.33331 8.52498 1.33331 6.33333 1.33331C4.14167 1.33331 3.04585 1.33331 2.30828 1.93862C2.17326 2.04943 2.04945 2.17324 1.93863 2.30826C1.33333 3.04583 1.33333 4.14166 1.33333 6.33331C1.33333 8.52497 1.33333 9.62079 1.93863 10.3584C2.04944 10.4934 2.17326 10.6172 2.30828 10.728C3.00747 11.3018 4.0286 11.3317 6 11.3332" stroke="#596774" stroke-width="1.5" stroke-linecap="round" stroke-linejoin="round"/>
</g>
</svg>
