<svg width="16" height="14" viewBox="0 0 16 14" fill="none" xmlns="http://www.w3.org/2000/svg">
<g id="elements">
<path id="Vector" d="M13.8493 11C14.3488 11 14.7462 10.6856 15.1029 10.2461C15.8332 9.3463 14.6342 8.62723 14.1768 8.27507C13.712 7.91708 13.1929 7.71428 12.6666 7.66667M11.9999 6.33333C12.9204 6.33333 13.6666 5.58714 13.6666 4.66667C13.6666 3.74619 12.9204 3 11.9999 3" stroke="#596774" stroke-width="1.5" stroke-linecap="round"/>
<path id="Vector_2" d="M2.1506 11C1.65106 11 1.25374 10.6856 0.89699 10.2461C0.166685 9.3463 1.36574 8.62723 1.82306 8.27507C2.28794 7.91708 2.80701 7.71428 3.33329 7.66667M3.66663 6.33333C2.74615 6.33333 1.99996 5.58714 1.99996 4.66667C1.99996 3.74619 2.74615 3 3.66663 3" stroke="#596774" stroke-width="1.5" stroke-linecap="round"/>
<path id="Vector_3" d="M5.38916 9.07404C4.70798 9.49525 2.92195 10.3553 4.00976 11.4315C4.54115 11.9573 5.13297 12.3333 5.87704 12.3333H10.1229C10.8669 12.3333 11.4588 11.9573 11.9902 11.4315C13.078 10.3553 11.2919 9.49525 10.6108 9.07404C9.01339 8.08632 6.98653 8.08632 5.38916 9.07404Z" stroke="#596774" stroke-width="1.5" stroke-linecap="round" stroke-linejoin="round"/>
<path id="Ellipse 1381" d="M10.3333 3.99996C10.3333 5.28862 9.28862 6.33329 7.99996 6.33329C6.71129 6.33329 5.66663 5.28862 5.66663 3.99996C5.66663 2.71129 6.71129 1.66663 7.99996 1.66663C9.28862 1.66663 10.3333 2.71129 10.3333 3.99996Z" stroke="#596774" stroke-width="1.5"/>
</g>
</svg>
