<svg width="14" height="16" viewBox="0 0 14 16" fill="none" xmlns="http://www.w3.org/2000/svg">
<g id="elements">
<path id="Rectangle 2173" d="M7.33331 1.33333H7.51513C9.68927 1.33333 10.7763 1.33333 11.5313 1.86522C11.7476 2.01761 11.9396 2.19834 12.1015 2.40192C12.6666 3.11244 12.6666 4.13557 12.6666 6.18181V7.87878C12.6666 9.85423 12.6666 10.842 12.354 11.6308C11.8514 12.899 10.7886 13.8994 9.44107 14.3724C8.60289 14.6667 7.55344 14.6667 5.45453 14.6667C4.25515 14.6667 3.65546 14.6667 3.1765 14.4985C2.40651 14.2282 1.79915 13.6566 1.51196 12.9319C1.33331 12.4811 1.33331 11.9167 1.33331 10.7879V7.99999" stroke="#141B34" stroke-width="1.5" stroke-linecap="round" stroke-linejoin="round"/>
<path id="Vector" d="M12.6667 8C12.6667 9.2273 11.6717 10.2222 10.4444 10.2222C10.0006 10.2222 9.47731 10.1444 9.04576 10.2601C8.66232 10.3628 8.36282 10.6623 8.26008 11.0458C8.14445 11.4773 8.22222 12.0006 8.22222 12.4444C8.22222 13.6717 7.2273 14.6667 6 14.6667" stroke="#141B34" stroke-width="1.5" stroke-linecap="round" stroke-linejoin="round"/>
<path id="Vector_2" d="M2 4.99999C2.32769 5.33712 3.19985 6.66666 3.66667 6.66666M5.33333 4.99999C5.00565 5.33712 4.13349 6.66666 3.66667 6.66666M3.66667 6.66666L3.66667 1.33332" stroke="#141B34" stroke-width="1.5" stroke-linecap="round" stroke-linejoin="round"/>
</g>
</svg>
