<svg width="13" height="16" viewBox="0 0 13 16" fill="none" xmlns="http://www.w3.org/2000/svg">
<g id="elements">
<path id="Vector 4867" d="M7.5 13H7.16666C5.28105 13 4.33824 13 3.75245 12.4142C3.16666 11.8284 3.16666 10.8856 3.16666 9V7.66667M3.16666 7V7.66667M3.16666 7.66667H7.5" stroke="#141B34" stroke-width="1.5" stroke-linecap="round" stroke-linejoin="round"/>
<path id="Rectangle 2310" d="M7.5 7.66667C7.5 6.88099 7.5 6.48816 7.73431 6.24408C7.96863 6 8.34575 6 9.1 6H9.9C10.6542 6 11.0314 6 11.2657 6.24408C11.5 6.48816 11.5 6.88099 11.5 7.66667C11.5 8.45234 11.5 8.84518 11.2657 9.08926C11.0314 9.33333 10.6542 9.33333 9.9 9.33333H9.1C8.34575 9.33333 7.96863 9.33333 7.73431 9.08926C7.5 8.84518 7.5 8.45234 7.5 7.66667Z" stroke="#141B34" stroke-width="1.5"/>
<path id="Rectangle 2311" d="M7.5 13C7.5 12.2143 7.5 11.8215 7.73431 11.5774C7.96863 11.3333 8.34575 11.3333 9.1 11.3333H9.9C10.6542 11.3333 11.0314 11.3333 11.2657 11.5774C11.5 11.8215 11.5 12.2143 11.5 13C11.5 13.7857 11.5 14.1785 11.2657 14.4226C11.0314 14.6667 10.6542 14.6667 9.9 14.6667H9.1C8.34575 14.6667 7.96863 14.6667 7.73431 14.4226C7.5 14.1785 7.5 13.7857 7.5 13Z" stroke="#141B34" stroke-width="1.5"/>
<path id="Vector" d="M3.16666 1.33333V5.33333M5.16666 3.33333L1.16666 3.33333" stroke="#032A44" stroke-width="1.5" stroke-linecap="round" stroke-linejoin="round"/>
</g>
</svg>
