<svg width="16" height="16" viewBox="0 0 16 16" fill="none" xmlns="http://www.w3.org/2000/svg">
<g id="elements">
<path id="Vector 6761" d="M6.66663 12L9.33329 12" stroke="#596774" stroke-width="1.5" stroke-linecap="round" stroke-linejoin="round"/>
<path id="Rectangle 1147" d="M1.56757 8.80901C1.33223 7.27753 1.21455 6.5118 1.50409 5.83296C1.79363 5.15412 2.436 4.68966 3.72074 3.76075L4.68064 3.06671C6.27884 1.91115 7.07794 1.33337 7.99998 1.33337C8.92202 1.33337 9.72112 1.91115 11.3193 3.06671L12.2792 3.76075C13.564 4.68966 14.2063 5.15412 14.4959 5.83296C14.7854 6.5118 14.6677 7.27753 14.4324 8.80901L14.2317 10.115C13.8981 12.286 13.7313 13.3715 12.9526 14.0191C12.174 14.6667 11.0358 14.6667 8.75919 14.6667H7.24077C4.9642 14.6667 3.82592 14.6667 3.04731 14.0191C2.26871 13.3715 2.10189 12.286 1.76826 10.115L1.56757 8.80901Z" stroke="#596774" stroke-width="1.5" stroke-linejoin="round"/>
</g>
</svg>
