<svg width="12" height="10" viewBox="0 0 12 10" fill="none" xmlns="http://www.w3.org/2000/svg">
<g id="elements">
<path id="Vector 5810 (Stroke)" fill-rule="evenodd" clip-rule="evenodd" d="M1.99994 0.375C2.27608 0.375 2.49994 0.598858 2.49994 0.875L2.49994 2.92418C2.49994 3.20032 2.27608 3.42418 1.99994 3.42418C1.7238 3.42418 1.49994 3.20032 1.49994 2.92418L1.49994 0.875C1.49994 0.598858 1.7238 0.375 1.99994 0.375Z" fill="#1A94DB"/>
<path id="Subtract" fill-rule="evenodd" clip-rule="evenodd" d="M3.99988 7.75004C3.99988 7.4739 3.77602 7.25004 3.49988 7.25004C3.22374 7.25004 2.99988 7.4739 2.99988 7.75004L2.99988 9.32512C2.99988 9.46654 2.99988 9.53726 2.95594 9.58119C2.91201 9.62512 2.8413 9.62512 2.69988 9.62512H1.49988C1.29277 9.62512 1.12488 9.45723 1.12488 9.25012L1.12488 5.44294C1.12488 5.35599 1.12488 5.31251 1.14712 5.285C1.16937 5.2575 1.21845 5.247 1.3166 5.22601C1.5481 5.1765 1.7652 5.05127 1.92777 4.8543L3.48877 2.96309C3.55424 2.88377 3.58697 2.84411 3.63117 2.84201C3.67536 2.8399 3.71172 2.87626 3.78444 2.94899L5.54347 4.70824C5.59952 4.76491 5.68238 4.8487 5.78978 4.93233C5.83297 4.96597 5.85457 4.98278 5.86472 5.00356C5.87488 5.02434 5.87488 5.04957 5.87488 5.10003L5.87488 9.25012C5.87488 9.45723 5.70698 9.62512 5.49988 9.62512H4.29988C4.15846 9.62512 4.08775 9.62512 4.04381 9.58119C3.99988 9.53726 3.99988 9.46655 3.99988 9.32512L3.99988 7.75004ZM4.00378 5.25004C4.00378 5.52619 3.78093 5.75004 3.50602 5.75004H3.50155C3.22664 5.75004 3.00378 5.52619 3.00378 5.25004C3.00378 4.9739 3.22664 4.75004 3.50155 4.75004H3.50602C3.78093 4.75004 4.00378 4.9739 4.00378 5.25004Z" fill="#1A94DB"/>
<path id="Subtract_2" fill-rule="evenodd" clip-rule="evenodd" d="M6.52998 5.27479C6.56015 5.24536 6.61609 5.24675 6.72797 5.24955C6.77542 5.25074 6.81737 5.2505 6.85208 5.25031L10.6755 5.25014C10.7691 5.25013 10.8159 5.25013 10.8452 5.27937C10.8745 5.30861 10.8746 5.35523 10.8747 5.44847C10.8748 5.49986 10.8748 5.55237 10.8748 5.60599L10.8748 9.25011C10.8748 9.45722 10.7069 9.62511 10.4998 9.62511H6.72383C6.59873 9.62511 6.53617 9.62511 6.50645 9.5927C6.47672 9.56029 6.48316 9.48607 6.49602 9.33764C6.49852 9.30881 6.4998 9.27962 6.4998 9.25014L6.4998 5.46099C6.4998 5.35648 6.4998 5.30422 6.52998 5.27479ZM8.99988 7.12511C9.20698 7.12511 9.37488 6.95722 9.37488 6.75011C9.37488 6.54301 9.20698 6.37511 8.99988 6.37511L7.99988 6.37511C7.79277 6.37511 7.62488 6.54301 7.62488 6.75011C7.62488 6.95722 7.79277 7.12511 7.99988 7.12511L8.99988 7.12511Z" fill="#1A94DB"/>
<path id="Union" d="M8.61479 1.00491C8.33592 0.874294 8.02461 0.874627 7.63158 0.875047L3.49995 0.875095C3.49654 0.875095 3.49314 0.875141 3.48975 0.875233C3.46684 0.875853 3.45539 0.876163 3.4532 0.876158C3.451 0.876154 3.44247 0.875886 3.42539 0.87535C3.28751 0.871021 3.14913 0.928507 3.05397 1.0438L0.732561 3.85628C0.568408 4.05516 0.595022 4.35073 0.792007 4.51647C0.988991 4.6822 1.28175 4.65533 1.4459 4.45645L3.3746 2.11976C3.4728 2.00078 3.5219 1.9413 3.58819 1.93813C3.65448 1.93497 3.70902 1.98952 3.8181 2.0986L5.97014 4.25073C6.08495 4.3662 6.20886 4.49083 6.37221 4.55849C6.53556 4.62615 6.7113 4.62564 6.87414 4.62517L11 4.6251C11.1455 4.6251 11.2778 4.54092 11.3395 4.40915C11.4013 4.27738 11.3812 4.12181 11.288 4.01003L9.34399 1.6771C9.0927 1.37489 8.89366 1.13552 8.61479 1.00491Z" fill="#1A94DB"/>
</g>
</svg>
