<svg width="12" height="10" viewBox="0 0 12 10" fill="none" xmlns="http://www.w3.org/2000/svg">
<g id="elements">
<path id="Subtract" fill-rule="evenodd" clip-rule="evenodd" d="M6.29216 0.734304C7.09993 0.127685 8.43704 -0.236688 9.92753 0.677577C10.9582 1.30976 11.5381 2.6303 11.3346 4.14756C11.1301 5.67213 10.1433 7.39645 8.05351 8.94325C7.32782 9.4807 6.7952 9.87516 6.00017 9.87516C5.20514 9.87516 4.67252 9.4807 3.94684 8.94325C1.85704 7.39645 0.870245 5.67213 0.66577 4.14756C0.462278 2.6303 1.04219 1.30976 2.07281 0.677577C3.5633 -0.236688 4.90042 0.127685 5.70818 0.734304C5.84107 0.834101 5.93228 0.902399 6.00017 0.948522C6.06807 0.902399 6.15927 0.834101 6.29216 0.734304ZM5.49998 3.5C5.49998 3.22386 5.72383 3 5.99998 3C6.27612 3 6.49998 3.22386 6.49998 3.5L6.49998 4.5H7.49998C7.77612 4.5 7.99998 4.72386 7.99998 5C7.99998 5.27614 7.77612 5.5 7.49998 5.5H6.49998V6.5C6.49998 6.77614 6.27612 7 5.99998 7C5.72383 7 5.49998 6.77614 5.49998 6.5V5.5H4.49998C4.22383 5.5 3.99998 5.27614 3.99998 5C3.99998 4.72386 4.22383 4.5 4.49998 4.5H5.49998L5.49998 3.5Z" fill="#1A94DB"/>
</g>
</svg>
