<svg width="16" height="14" viewBox="0 0 16 14" fill="none" xmlns="http://www.w3.org/2000/svg">
<g id="elements">
<path id="Vector" d="M14.6666 7.33329C14.6666 7.0057 14.6631 6.34474 14.6561 6.01618C14.6126 3.97249 14.5908 2.95065 13.8367 2.19369C13.0826 1.43674 12.0331 1.41037 9.9341 1.35763C8.64044 1.32513 7.35952 1.32513 6.06586 1.35763C3.96687 1.41036 2.91737 1.43673 2.16328 2.19368C1.4092 2.95064 1.3874 3.97248 1.34382 6.01617C1.32981 6.6733 1.32981 7.32654 1.34382 7.98367C1.38741 10.0274 1.4092 11.0492 2.16328 11.8062C2.91737 12.5631 3.96687 12.5895 6.06587 12.6422C6.60104 12.6557 7.13403 12.6635 7.66665 12.6659" stroke="#032A44" stroke-width="1.5" stroke-linecap="round" stroke-linejoin="round"/>
<path id="Vector 7163" d="M1.33331 3L5.942 5.61641C7.62575 6.57231 8.37421 6.57231 10.058 5.61641L14.6666 3" stroke="#032A44" stroke-width="1.5" stroke-linejoin="round"/>
<path id="Vector_2" d="M14.6666 10.6667L9.33331 10.6667M14.6666 10.6667C14.6666 10.1998 13.3371 9.32769 13 9M14.6666 10.6667C14.6666 11.1335 13.3371 12.0056 13 12.3333" stroke="#032A44" stroke-width="1.5" stroke-linecap="round" stroke-linejoin="round"/>
</g>
</svg>
