<svg width="15" height="16" viewBox="0 0 15 16" fill="none" xmlns="http://www.w3.org/2000/svg">
<g id="elements">
<path id="Rectangle 2177" d="M6.64706 14.6667C3.98501 14.6667 2.65398 14.6667 1.82699 13.8857C1 13.1046 1 11.8475 1 9.33337L1 6.66671C1 4.15255 1 2.89547 1.82699 2.11442C2.65399 1.33337 3.98501 1.33337 6.64706 1.33337L7.35294 1.33337C10.015 1.33337 11.346 1.33337 12.173 2.11442C13 2.89547 13 4.15255 13 6.66671M6.66667 14.6667H7.66667" stroke="#596774" stroke-width="1.5" stroke-linecap="round"/>
<path id="Vector 4435" d="M4.33331 4.66675H9.66665" stroke="#596774" stroke-width="1.5" stroke-linecap="round"/>
<path id="Vector 4436" d="M4.33331 8H7.66665" stroke="#596774" stroke-width="1.5" stroke-linecap="round"/>
<path id="Ellipse 1570" d="M10.6667 12.3931L10.0652 14.4953C10.0381 14.6008 10.1426 14.6924 10.2439 14.6519L11.5676 14.1233C11.6312 14.0979 11.7021 14.0979 11.7657 14.1233L13.1021 14.657C13.201 14.6965 13.304 14.61 13.2821 14.506L12.7726 12.3275M13.6667 10.6635C13.6667 9.56072 12.7713 8.66675 11.6667 8.66675C10.5621 8.66675 9.66669 9.56072 9.66669 10.6635C9.66669 11.7663 10.5621 12.6602 11.6667 12.6602C12.7713 12.6602 13.6667 11.7663 13.6667 10.6635Z" stroke="#596774" stroke-width="1.5" stroke-linejoin="round"/>
</g>
</svg>
