<svg width="16" height="16" viewBox="0 0 16 16" fill="none" xmlns="http://www.w3.org/2000/svg">
<g id="elements">
<path id="Rectangle 2268" d="M8.63164 12.6667C8.57965 13.3477 8.4505 13.7933 8.12971 14.1199C7.59273 14.6667 6.72849 14.6667 5.00001 14.6667C3.27153 14.6667 2.40729 14.6667 1.87031 14.1199C1.33334 13.5732 1.33334 12.6933 1.33334 10.9333L1.33334 7.73334C1.33334 5.97343 1.33334 5.09348 1.87031 4.54674C2.19679 4.21433 2.64424 4.08403 3.33334 4.03294" stroke="#141B34" stroke-width="1.5" stroke-linecap="round"/>
<path id="Vector" d="M4.99468 12.6671H5.00067" stroke="#141B34" stroke-width="2" stroke-linecap="round" stroke-linejoin="round"/>
<path id="Rectangle 4" d="M10.719 1.33372L9.28099 1.33372C7.34722 1.33372 6.38033 1.33372 5.8064 1.93589C5.23248 2.53806 5.29279 3.48924 5.41341 5.39161L5.49731 6.71477C5.52504 7.15197 5.5389 7.37056 5.58797 7.55289C5.77749 8.25702 6.3569 8.79355 7.08168 8.93607C7.26937 8.97297 7.49157 8.97297 7.93598 8.97297C8.55524 8.97297 8.54684 9.48443 8.54684 9.99066C8.54684 10.3834 8.54684 10.5797 8.67475 10.6472C8.80267 10.7147 8.96842 10.6058 9.29992 10.3879L11.2729 9.09146C11.4019 9.00665 11.5179 8.97297 11.6699 8.97297C12.4847 8.97297 12.8921 8.97297 13.2222 8.8504C14.3662 8.42571 14.4612 7.36877 14.5273 6.32702L14.5866 5.39161C14.7072 3.48924 14.7675 2.53806 14.1936 1.93589C13.6197 1.33372 12.6528 1.33372 10.719 1.33372Z" stroke="#141B34" stroke-width="1.5" stroke-linejoin="round"/>
<path id="Vector_2" d="M9.22283 5.61944C7.61722 4.47658 9.99955 3.33372 9.99955 3.33372C9.99955 3.33372 12.3831 4.47658 10.7776 5.61944M9.22283 5.61944H10.7776M9.22283 5.61944L8.83383 7.33373M10.7776 5.61944L11.3214 7.33373" stroke="#141B34" stroke-width="1.5" stroke-linecap="round" stroke-linejoin="round"/>
</g>
</svg>
