<svg width="16" height="14" viewBox="0 0 16 14" fill="none" xmlns="http://www.w3.org/2000/svg">
<g id="elements">
<path id="Ellipse 1201" d="M10.3333 6.99996C10.3333 8.28862 9.28862 9.33329 7.99996 9.33329C6.71129 9.33329 5.66663 8.28862 5.66663 6.99996C5.66663 5.71129 6.71129 4.66663 7.99996 4.66663C9.28862 4.66663 10.3333 5.71129 10.3333 6.99996Z" stroke="#596774" stroke-width="1.5"/>
<path id="Vector" d="M13.6923 8.50593C14.2306 8.2791 14.4998 8.16569 14.5832 8.04001C14.6666 7.91434 14.6666 7.71329 14.6666 7.3112V6.68878C14.6666 6.28665 14.6666 6.08559 14.5832 5.9599C14.4998 5.83422 14.2306 5.72084 13.6923 5.49409C12.6831 5.069 12.048 4.00938 12.1675 2.93286C12.2335 2.33876 12.2664 2.04172 12.1983 1.90822C12.1302 1.77472 11.9553 1.67546 11.6057 1.47695L11.0357 1.15332C10.6896 0.956801 10.5165 0.858538 10.3666 0.868682C10.2166 0.878826 9.98805 1.05314 9.53087 1.40176C8.63581 2.08428 7.36519 2.08425 6.47013 1.4017C6.01297 1.05307 5.78439 0.878761 5.63445 0.868616C5.48451 0.85847 5.31144 0.956734 4.9653 1.15326L4.3953 1.47689C4.04571 1.67538 3.87092 1.77462 3.80278 1.90809C3.73464 2.04156 3.76756 2.33865 3.8334 2.93282C3.95268 4.00939 3.31713 5.06906 2.30768 5.49413C1.76937 5.7208 1.50022 5.83414 1.41677 5.95983C1.33331 6.08553 1.33331 6.28661 1.33331 6.68878V7.3112C1.33331 7.71333 1.33331 7.9144 1.41675 8.04008C1.50019 8.16577 1.76935 8.27914 2.30767 8.50589C3.31686 8.93098 3.95191 9.99061 3.83243 11.0671C3.76649 11.6612 3.73352 11.9583 3.80166 12.0918C3.8698 12.2253 4.04461 12.3245 4.39425 12.523L4.96425 12.8467C5.31043 13.0432 5.48352 13.1415 5.63348 13.1313C5.78345 13.1212 6.01197 12.9468 6.46901 12.5982C7.36465 11.9149 8.63635 11.9149 9.53199 12.5981C9.98905 12.9468 10.2176 13.1211 10.3675 13.1313C10.5175 13.1414 10.6906 13.0431 11.0368 12.8466L11.6068 12.523C11.9564 12.3244 12.1313 12.2252 12.1994 12.0916C12.2676 11.9581 12.2345 11.6611 12.1685 11.0671C12.0488 9.99062 12.6834 8.93104 13.6923 8.50593Z" stroke="#596774" stroke-width="1.5" stroke-linecap="round"/>
</g>
</svg>
