<svg width="12" height="10" viewBox="0 0 12 10" fill="none" xmlns="http://www.w3.org/2000/svg">
<g id="elements">
<path id="Vector (Stroke)" d="M8.44579 1.0442C9.12028 0.748728 9.74294 0.898903 10.2882 1.05118C10.5167 1.11461 10.7725 1.18564 10.9299 1.29934C11.176 1.477 11.337 1.75099 11.3702 2.05302C11.3954 2.28148 11.3229 2.51099 11.2668 2.7297C11.1277 3.27256 10.9472 3.88293 10.3485 4.31307C10.1236 4.47468 9.77697 4.65255 9.49978 4.78575C9.2149 4.92265 8.97276 5.02674 8.94061 5.04049L5.33719 6.58823C4.91264 6.77023 4.81861 6.82042 4.75601 6.89362C4.46456 7.23438 4.4695 7.80311 4.36324 8.21759C4.30982 8.42595 4.16107 8.65463 3.99036 8.8208C3.83119 8.97573 3.54112 9.18239 3.19437 9.11038C2.83732 9.03623 2.72166 8.70741 2.68203 8.3889L2.43781 6.85695C2.4227 6.76245 2.41515 6.7152 2.39161 6.67485C2.36807 6.63449 2.33066 6.60466 2.25584 6.54499L1.03056 5.56776C0.772593 5.37587 0.539954 5.11199 0.655382 4.76383C0.767432 4.42585 1.09735 4.2817 1.30986 4.22398C1.54037 4.16137 1.81329 4.14903 2.01994 4.20675C2.43973 4.32399 2.93456 4.61282 3.38343 4.53342C3.48045 4.51626 3.57189 4.46052 3.94332 4.18912L7.10342 1.88366C7.13165 1.86299 7.34412 1.70809 7.60672 1.53308C7.86229 1.36277 8.19167 1.15552 8.44579 1.0442Z" fill="#FC45AA"/>
<g id="Vector">
<path d="M6.60395 6.72482C6.40734 6.80927 6.30903 6.85149 6.26884 6.93861C6.22865 7.02573 6.26034 7.12792 6.3237 7.3323L6.94801 9.34591C7.00159 9.51873 7.10962 9.74166 7.35039 9.83569C7.59069 9.92954 7.81827 9.83819 7.96558 9.75373C8.22126 9.60714 8.43383 9.43016 8.57872 9.18588C8.72342 8.94189 8.77892 8.66731 8.78579 8.36385L8.83764 6.07348C8.84081 5.93339 8.8424 5.86334 8.79715 5.83279C8.75189 5.80223 8.68752 5.82988 8.55876 5.88519L6.60395 6.72482Z" fill="#FC45AA"/>
<path d="M4.2037 0.36879C3.92468 0.215664 3.64818 0.122494 3.35388 0.125051C3.05901 0.127614 2.78879 0.225899 2.52203 0.3802C2.36885 0.468803 2.17153 0.624195 2.13252 0.884682C2.09359 1.14469 2.23563 1.35452 2.3638 1.49277L3.77684 2.99544C3.92082 3.14855 3.9928 3.2251 4.08695 3.23387C4.1811 3.24265 4.266 3.18071 4.43578 3.05685L6.18467 1.78094C6.29901 1.69752 6.35617 1.65581 6.35265 1.60099C6.34913 1.54617 6.28709 1.51212 6.16301 1.44403L4.2037 0.36879Z" fill="#FC45AA"/>
</g>
</g>
</svg>
