<svg width="12" height="10" viewBox="0 0 12 10" fill="none" xmlns="http://www.w3.org/2000/svg">
<g id="elements">
<g id="Vector">
<path d="M8.95 8.87584C8.85572 8.87584 8.80858 8.87584 8.77929 8.90513C8.75 8.93442 8.75 8.98156 8.75 9.07584V9.31682C8.75 9.50621 8.87037 9.67934 9.06094 9.76404C9.06843 9.76736 9.0759 9.7707 9.08335 9.77403C9.19899 9.82567 9.31133 9.87584 9.44529 9.87584H10.3047C10.4387 9.87584 10.551 9.82567 10.6666 9.77403C10.6741 9.7707 10.6816 9.76736 10.6891 9.76404C10.8796 9.67934 11 9.50621 11 9.31682V8.87244C11 8.74463 11 8.68072 10.9648 8.65077C10.9295 8.62082 10.8584 8.63244 10.716 8.65569C10.7019 8.658 10.6876 8.66011 10.6732 8.66201L9.11481 8.86827C9.07674 8.87331 9.03839 8.87584 9 8.87584H8.95Z" fill="#8E80FF"/>
<path d="M3.05 8.87594C3.14428 8.87594 3.19142 8.87594 3.22071 8.90523C3.25 8.93451 3.25 8.98165 3.25 9.07594V9.31692C3.25 9.5063 3.12962 9.67944 2.93906 9.76413C2.93157 9.76746 2.9241 9.7708 2.91664 9.77413C2.80101 9.82577 2.68867 9.87594 2.55471 9.87594H1.69529C1.56133 9.87594 1.44899 9.82577 1.33336 9.77413C1.3259 9.7708 1.31843 9.76746 1.31094 9.76413C1.12038 9.67944 1 9.5063 1 9.31692L1 8.87254C1 8.74472 1 8.68082 1.03524 8.65087C1.07048 8.62092 1.14165 8.63254 1.28398 8.65579C1.29813 8.6581 1.31239 8.66021 1.32677 8.66211L2.88519 8.86837C2.92325 8.87341 2.96161 8.87594 3 8.87594H3.05Z" fill="#8E80FF"/>
</g>
<path id="Vector (Stroke)" fill-rule="evenodd" clip-rule="evenodd" d="M1.0529 2.7765C1.17639 2.52951 1.47673 2.4294 1.72372 2.5529L2.22372 2.8029C2.47071 2.92639 2.57082 3.22673 2.44732 3.47372C2.32383 3.72071 2.02349 3.82082 1.7765 3.69732L1.2765 3.44732C1.02951 3.32383 0.929401 3.02349 1.0529 2.7765ZM10.9473 2.7765C11.0708 3.02349 10.9707 3.32383 10.7237 3.44732L10.2237 3.69732C9.97673 3.82082 9.67639 3.72071 9.5529 3.47372C9.4294 3.22673 9.52951 2.92639 9.7765 2.8029L10.2765 2.5529C10.5235 2.4294 10.8238 2.52951 10.9473 2.7765Z" fill="#8E80FF"/>
<path id="Union" fill-rule="evenodd" clip-rule="evenodd" d="M10.1716 3.39782C10.3811 3.61461 10.6399 3.88249 10.8549 4.17024C11.1251 4.53188 11.375 4.98554 11.375 5.49981V7.23509C11.375 7.67374 11.0783 8.1032 10.6076 8.1655L9.0492 8.37176C9.03289 8.37392 9.01645 8.375 9 8.375L3 8.375C2.98355 8.375 2.96711 8.37392 2.9508 8.37176L1.39238 8.1655C0.921661 8.1032 0.625 7.67374 0.625 7.23509L0.625 5.49981C0.625 4.98554 0.874918 4.53188 1.14511 4.17024C1.3601 3.88249 1.61881 3.61471 1.82827 3.39792C1.87081 3.35389 1.8802 3.31538 1.90003 3.25791L2.43621 1.70423C2.53607 1.4148 2.6236 1.16111 2.72054 0.959845C2.82533 0.742267 2.9603 0.54287 3.17926 0.390433C3.39822 0.237997 3.63675 0.177366 3.88358 0.150146C4.11191 0.124968 4.38875 0.124983 4.70461 0.125001L7.29539 0.125001C7.61124 0.124983 7.88809 0.124968 8.11642 0.150146C8.36325 0.177366 8.60178 0.237997 8.82074 0.390433C9.03969 0.54287 9.17467 0.742267 9.27946 0.959845C9.3764 1.16111 9.46392 1.41479 9.56379 1.70422L10.1 3.25791C10.1187 3.31208 10.1316 3.35639 10.1716 3.39782ZM3.38985 3.125C3.19803 3.125 3.10212 3.125 3.05726 3.06206C3.0124 2.99913 3.04369 2.90846 3.10626 2.72713L3.34892 2.02399C3.45922 1.70438 3.52975 1.50223 3.60053 1.35527C3.69047 1.16853 3.7883 1.10421 3.99367 1.08156C4.1604 1.06318 4.38125 1.06247 4.73004 1.06247L7.26996 1.06247C7.61875 1.06247 7.8396 1.06318 8.00632 1.08156C8.2117 1.10421 8.30953 1.16853 8.39947 1.35527C8.47025 1.50223 8.54078 1.70438 8.65108 2.02399L8.89374 2.72713C8.95631 2.90846 8.9876 2.99913 8.94274 3.06206C8.89788 3.125 8.80197 3.125 8.61015 3.125L3.38985 3.125ZM1.66779 4.78967C1.48255 4.69705 1.25729 4.77213 1.16467 4.95738C1.07205 5.14262 1.14714 5.36787 1.33238 5.46049L2.08238 5.83549C2.26762 5.92811 2.49287 5.85303 2.58549 5.66779C2.67811 5.48255 2.60303 5.25729 2.41779 5.16467L1.66779 4.78967ZM10.6678 5.46049C10.853 5.36787 10.9281 5.14262 10.8355 4.95738C10.7429 4.77213 10.5176 4.69705 10.3324 4.78967L9.58238 5.16467C9.39713 5.25729 9.32205 5.48255 9.41467 5.66779C9.50729 5.85303 9.73254 5.92811 9.91779 5.83549L10.6678 5.46049ZM6.48462 6.5L5.51572 6.5C5.02386 6.5 4.77793 6.5 4.58747 6.63676C4.43964 6.7429 4.35153 6.91254 4.23408 7.20961C4.18249 7.34011 4.1567 7.40535 4.18638 7.45268C4.21605 7.5 4.2835 7.5 4.41841 7.5L7.58193 7.5C7.71683 7.5 7.78428 7.5 7.81396 7.45268C7.84364 7.40535 7.81784 7.34011 7.76625 7.20961C7.6488 6.91254 7.56069 6.7429 7.41286 6.63676C7.2224 6.5 6.97647 6.5 6.48462 6.5Z" fill="#8E80FF"/>
</g>
</svg>
