<svg width="16" height="12" viewBox="0 0 16 12" fill="none" xmlns="http://www.w3.org/2000/svg">
<g id="elements">
<path id="Ellipse 1333" d="M14.3626 5.36336C14.5653 5.64758 14.6666 5.78968 14.6666 6.00004C14.6666 6.2104 14.5653 6.3525 14.3626 6.63672C13.4519 7.91375 11.1261 10.6667 7.99998 10.6667C4.87383 10.6667 2.54804 7.91375 1.63734 6.63672C1.43466 6.3525 1.33331 6.2104 1.33331 6.00004C1.33331 5.78968 1.43466 5.64758 1.63734 5.36336C2.54804 4.08634 4.87383 1.33337 7.99998 1.33337C11.1261 1.33337 13.4519 4.08633 14.3626 5.36336Z" stroke="#032A44" stroke-width="1.5"/>
<path id="Ellipse 1334" d="M10 6C10 4.89543 9.10457 4 8 4C6.89543 4 6 4.89543 6 6C6 7.10457 6.89543 8 8 8C9.10457 8 10 7.10457 10 6Z" stroke="#032A44" stroke-width="1.5"/>
</g>
</svg>
